<svg version="1.0" xmlns="http://www.w3.org/2000/svg" width="933.333" height="933.333" viewBox="0 0 700 700"><style>path{fill:#000}@media (prefers-color-scheme:dark){path{fill:#fff}}</style><path d="M363.1 15.5c-11.7 2.1-21.2 7.4-30.6 16.9-9.2 9.3-13.6 16.2-17.6 27.8-7.4 21.6-5 47.4 6.2 66.6 5.5 9.2 18.1 21.2 26.9 25.6 23.8 11.6 50 6.4 68.5-13.6 7.6-8.1 12-15.5 15.6-26 5.9-17.2 5.9-35.4 0-52.6-4-11.6-8.4-18.5-17.6-27.8-9.6-9.7-18.8-14.7-31-16.9-9.6-1.7-10.9-1.7-20.4 0zm22.7 31.6c20 9.9 27.4 39.9 15.7 62.9-6 11.7-16.8 19-28 19-18.6 0-33.5-18.9-33.5-42.5S354.9 44 373.5 44c4.9 0 7.5.6 12.3 3.1zM109.2 124c-32.3 4.4-58.6 28.5-67.3 61.5-1.6 6.1-2.1 11-2.1 20.5s.5 14.4 2.1 20.5c7.8 29.4 29.9 52.2 57.8 59.6 10.8 2.9 27.8 2.9 38.6 0 27.9-7.4 50-30.2 57.8-59.6 1.6-6.1 2.1-11 2.1-20.5 0-14.5-2-23.9-7.7-35.9-15.1-31.7-48.3-50.6-81.3-46.1zm24.1 31c12.3 3.8 23.3 13.1 29.6 25 8.2 15.4 8.2 36.6 0 52-14.1 26.4-46.5 35.1-70.8 18.9-30.7-20.5-31-68.5-.6-89.4 12-8.3 28-10.8 41.8-6.5zM591.5 143.6c-12.7 1.9-24.3 8-34 17.9-30.7 31.3-30.5 89.5.4 120.5 11.6 11.5 24.8 17.3 39.6 17.3 32 0 58.1-28.4 62.5-67.9 4.3-39.2-16.9-76.9-48-85.8-6.1-1.7-15.9-2.6-20.5-2zm16.3 31.4c9.3 4.2 18.4 17.2 21.7 31.1.8 3.5 1.5 10.4 1.5 15.4 0 16.1-5.1 30.4-14.2 39.7-6 6.2-11.6 8.7-19 8.8-7.5 0-13.8-2.8-19.6-8.8-9.1-9.3-14.2-23.6-14.2-39.7 0-21 9.2-39.5 23-46.3 5.8-2.8 14.8-2.9 20.8-.2zM348.2 204.1c-33.1 3.1-64.2 17.8-88.2 41.9-21.6 21.6-35.2 47.9-40.7 78.5-2.1 11.7-2.1 35 0 47 3.3 18.4 10.8 38.3 20 53 21.8 34.8 58 58.9 99.2 66.2 11.9 2 35.2 2.1 47 0 21.1-3.8 41.1-11.9 58.7-23.9 11.9-8 28.6-24.7 36.6-36.6 11.9-17.4 20.1-37.5 23.8-58.2 2-11.4 2.1-36.8 0-48-3.8-20.9-11.9-40.8-23.8-58.2-8-11.9-24.7-28.6-36.6-36.6-28.3-19.3-62.6-28.3-96-25.1zm34 30.4c46.8 8.1 85.2 46.5 93.3 93.3 1.9 10.8 1.9 29.6 0 40.4-5.9 34.2-29.1 65.7-60.1 82-9.5 5-26 10.4-36.3 11.9-11.6 1.6-34.4.7-44.1-1.9-43.1-11.4-73.8-42.1-85.2-85.2-2.6-9.7-3.5-32.5-1.9-44.1 1.6-10.7 7-27.1 12.3-37 16.2-30.5 47.2-53.3 80.8-59.4 10.2-1.8 30.8-1.8 41.2 0zM103.5 369.1c-32.1 4.7-56 36.7-60.5 80.9-5.7 57.4 36.5 110.6 82.7 104 22.5-3.2 39.2-16.5 50.3-40.3 8.5-18.2 11.1-41.4 7.1-64.5-9-53-41.6-85.8-79.6-80.1zm20 31.3c11.5 5.7 20.2 17.5 26.6 36.4 10.2 30.2 6.5 61-9.3 77.9-7 7.4-13.2 10.3-22 10.3-10.9 0-16.8-2.8-26.3-12.4-9.6-9.6-15.2-20-18.6-34.1-2.8-11.7-2.3-30.9 1.1-42.5 2.9-10 9.2-22 14.9-27.9 9.2-9.9 22.7-12.9 33.6-7.7zM566.3 403.5c-18.8 4.1-34.4 18.4-42.3 38.7-4.4 11.3-6.2 21.8-6.3 35.8 0 23.2 6.3 39.9 20.3 54.1 12 12.2 26.4 18.7 45.4 20.8 35.4 4 60.4-13.1 69.7-47.4 1.8-6.6 2.2-10.8 2.3-24.5.1-34.3-9-55-29.9-67.5-15-9-42.5-13.6-59.2-10zm30.6 30.1c7.1 1.6 15.4 5.4 18.9 8.7 6.6 6 10.4 19.8 10.6 37.2.1 17.1-2.8 27.5-10 35.5-6.6 7.2-10.1 8.5-23.9 8.5-17.7 0-28.3-4.3-36.5-14.7-6.9-8.7-8.5-14.3-8.5-30.3 0-15 1-20.3 5.3-29 8.4-17 20.5-21.3 44.1-15.9zM328.5 538c-23.6 4.8-36.7 22-39.5 52.1-1.2 12.9-.1 27.4 3.1 39.4 9.6 37 39.5 58.8 74.4 54.5 21.6-2.7 37.4-14.1 46.6-33.5 11.3-23.8 10.1-63.6-2.6-85-8.8-15-25.3-23.7-52-27.5-8.2-1.1-24.2-1.1-30 0zm34.3 30.5c20.2 4.2 25.6 10.5 28.3 32.9 2.9 23.9-3.9 43.6-17.5 50.9-3.5 1.9-5.7 2.2-15.1 2.2-9.1 0-11.8-.4-15.6-2.1-9.8-4.5-16.9-13.5-21.5-27.1-2.1-6.2-2.8-10.3-3.2-20.2-.9-23.6 3.6-35.3 14.9-38.2 4.7-1.2 20.8-.3 29.7 1.6z"/></svg>