<?xml version="1.0" standalone="no"?>
<!DOCTYPE svg PUBLIC "-//W3C//DTD SVG 20010904//EN"
 "http://www.w3.org/TR/2001/REC-SVG-20010904/DTD/svg10.dtd">
<svg version="1.0" xmlns="http://www.w3.org/2000/svg" width="700.000000pt" height="700.000000pt" viewBox="0 0 700.000000 700.000000" preserveAspectRatio="xMidYMid meet">
<style>path {
  fill: #000;
}

@media (prefers-color-scheme: dark) {
  path {
    fill: #fff;
  }
}

</style>
<g transform="translate(0.000000,700.000000) scale(0.100000,-0.100000)" fill="#000000" stroke="none">
<path d="M3631 6845 c-117 -21 -212 -74 -306 -169 -92 -93 -136 -162 -176
-278 -74 -216 -50 -474 62 -666 55 -92 181 -212 269 -256 238 -116 500 -64
685 136 76 81 120 155 156 260 59 172 59 354 0 526 -40 116 -84 185 -176 278
-96 97 -188 147 -310 169 -96 17 -109 17 -204 0z m227 -316 c200 -99 274 -399
157 -629 -60 -117 -168 -190 -280 -190 -186 0 -335 189 -335 425 0 236 149
425 335 425 49 0 75 -6 123 -31z"></path>
<path d="M1092 5760 c-323 -44 -586 -285 -673 -615 -16 -61 -21 -110 -21 -205
0 -95 5 -144 21 -205 78 -294 299 -522 578 -596 108 -29 278 -29 386 0 279 74
500 302 578 596 16 61 21 110 21 205 0 145 -20 239 -77 359 -151 317 -483 506
-813 461z m241 -310 c123 -38 233 -131 296 -250 82 -154 82 -366 0 -520 -141
-264 -465 -351 -708 -189 -307 205 -310 685 -6 894 120 83 280 108 418 65z"></path>
<path d="M5915 5564 c-127 -19 -243 -80 -340 -179 -307 -313 -305 -895 4
-1205 116 -115 248 -173 396 -173 320 0 581 284 625 679 43 392 -169 769 -480
858 -61 17 -159 26 -205 20z m163 -314 c93 -42 184 -172 217 -311 8 -35 15
-104 15 -154 0 -161 -51 -304 -142 -397 -60 -62 -116 -87 -190 -88 -75 0 -138
28 -196 88 -91 93 -142 236 -142 397 0 210 92 395 230 463 58 28 148 29 208 2z"></path>
<path d="M3482 4959 c-331 -31 -642 -178 -882 -419 -216 -216 -352 -479 -407
-785 -21 -117 -21 -350 0 -470 33 -184 108 -383 200 -530 218 -348 580 -589
992 -662 119 -20 352 -21 470 0 211 38 411 119 587 239 119 80 286 247 366
366 119 174 201 375 238 582 20 114 21 368 0 480 -38 209 -119 408 -238 582
-80 119 -247 286 -366 366 -283 193 -626 283 -960 251z m340 -304 c468 -81
852 -465 933 -933 19 -108 19 -296 0 -404 -59 -342 -291 -657 -601 -820 -95
-50 -260 -104 -363 -119 -116 -16 -344 -7 -441 19 -431 114 -738 421 -852 852
-26 97 -35 325 -19 441 16 107 70 271 123 370 162 305 472 533 808 594 102 18
308 18 412 0z"></path>
<path d="M1035 3309 c-321 -47 -560 -367 -605 -809 -57 -574 365 -1106 827
-1040 225 32 392 165 503 403 85 182 111 414 71 645 -90 530 -416 858 -796
801z m200 -313 c115 -57 202 -175 266 -364 102 -302 65 -610 -93 -779 -70 -74
-132 -103 -220 -103 -109 0 -168 28 -263 124 -96 96 -152 200 -186 341 -28
117 -23 309 11 425 29 100 92 220 149 279 92 99 227 129 336 77z"></path>
<path d="M5663 2965 c-188 -41 -344 -184 -423 -387 -44 -113 -62 -218 -63
-358 0 -232 63 -399 203 -541 120 -122 264 -187 454 -208 354 -40 604 131 697
474 18 66 22 108 23 245 1 343 -90 550 -299 675 -150 90 -425 136 -592 100z
m306 -301 c71 -16 154 -54 189 -87 66 -60 104 -198 106 -372 1 -171 -28 -275
-100 -355 -66 -72 -101 -85 -239 -85 -177 0 -283 43 -365 147 -69 87 -85 143
-85 303 0 150 10 203 53 290 84 170 205 213 441 159z"></path>
<path d="M3285 1620 c-236 -48 -367 -220 -395 -521 -12 -129 -1 -274 31 -394
96 -370 395 -588 744 -545 216 27 374 141 466 335 113 238 101 636 -26 850
-88 150 -253 237 -520 275 -82 11 -242 11 -300 0z m343 -305 c202 -42 256
-105 283 -329 29 -239 -39 -436 -175 -509 -35 -19 -57 -22 -151 -22 -91 0
-118 4 -156 21 -98 45 -169 135 -215 271 -21 62 -28 103 -32 202 -9 236 36
353 149 382 47 12 208 3 297 -16z"></path>
</g>
</svg>
